<svg width="512" height="512" viewBox="0 0 512 512" fill="none" xmlns="http://www.w3.org/2000/svg">
<ellipse cx="255.912" cy="256.047" rx="255.912" ry="255.953" fill="url(#paint0_linear_403_385)" style="mix-blend-mode:lighten"/>
<path d="M213.884 203.478V316.386C213.884 325.256 208.881 332.542 198.871 338.245C189.831 343.441 179.418 346.038 167.633 346.038C153.588 346.038 144.144 345.088 139.301 343.187C131.875 340.273 128.162 334.126 128.162 324.749V222.676C128.162 198.853 122.673 186.941 111.696 186.941C100.072 186.941 92.5658 191.313 89.1755 200.057C87.5613 204.238 86.754 212.158 86.754 223.817V337.167C86.754 340.912 83.7184 343.947 79.9738 343.947V343.947C76.2291 343.947 73.1935 340.912 73.1935 337.167V219.065C73.1935 203.225 78.6016 190.553 89.4177 181.049C100.88 171.038 116.539 166.032 136.395 166.032C158.189 166.032 169.086 179.655 169.086 206.9V313.047C169.086 313.751 169.145 314.455 169.281 315.146C170.236 319.967 171.543 322.852 173.203 323.8C179.499 327.347 186.44 329.121 194.028 329.121C198.387 329.121 200.566 327.855 200.566 325.32V212.412C200.566 201.007 206.701 190.172 218.97 179.908C231.239 169.644 244.638 164.512 259.166 164.512C266.754 164.512 273.696 166.349 279.993 170.024C290.647 176.233 295.974 186.688 295.974 201.387V304.981C295.974 317.4 297.831 324.877 301.544 327.41C308.809 331.086 314.862 332.923 319.706 332.923C330.199 332.923 335.446 322.659 335.446 302.129C335.446 295.667 335.122 285.466 334.476 271.527C333.993 258.221 333.75 248.02 333.75 240.924C333.911 226.098 334.557 214.63 335.687 206.519C337.302 195.748 345.615 186.371 360.63 178.388C374.352 170.911 388.477 167.109 403.007 166.983C416.89 166.856 426.576 169.834 432.064 175.916C436.585 180.985 438.845 189.222 438.845 200.627V331.947C438.845 338.575 433.472 343.947 426.845 343.947H406.047C399.42 343.947 394.047 338.575 394.047 331.947V216.404C394.047 207.66 393.966 202.654 393.804 201.387C392.512 191.503 387.185 186.561 377.822 186.561C376.207 186.561 374.432 186.688 372.495 186.941C357.482 188.842 349.974 196.445 349.974 209.751C349.974 211.525 350.055 214.186 350.216 217.734C350.378 221.409 350.459 224.134 350.459 225.908V290.915C350.459 302.827 350.136 310.303 349.49 313.345C344.647 336.027 321.158 347.369 279.024 347.369C266.754 347.369 258.844 345.405 255.293 341.476C252.549 338.436 251.176 331.593 251.176 320.948V217.354C251.176 195.685 245.042 184.85 232.772 184.85C220.181 184.85 213.884 191.06 213.884 203.478Z" fill="#64FFDA"/>
<defs>
<linearGradient id="paint0_linear_403_385" x1="255.912" y1="0.0938263" x2="255.912" y2="512" gradientUnits="userSpaceOnUse">
<stop stop-color="#133040"/>
<stop offset="1" stop-color="#0A192F"/>
</linearGradient>
</defs>
</svg>
